HIERARCHY
ROOT hip
{
  OFFSET 0 0 0
  CHANNELS 6 Xposition Yposition Zposition Zrotation Yrotation Xrotation
  JOINT abdomen
  {
    OFFSET 0 20.6881 -0.73152
    CHANNELS 3 Zrotation Xrotation Yrotation
    JOINT chest
    {
      OFFSET 0 11.7043 -0.48768
      CHANNELS 3 Zrotation Xrotation Yrotation
      JOINT neck
      {
        OFFSET 0 22.1894 -2.19456
        CHANNELS 3 Zrotation Xrotation Yrotation
        JOINT head
        {
          OFFSET -0.24384 7.07133 1.2192
          CHANNELS 3 Zrotation Xrotation Yrotation
          JOINT leftEye
          {
            OFFSET 4.14528 8.04674 8.04672
            CHANNELS 3 Zrotation Xrotation Yrotation
            End Site
            {
              OFFSET 1 0 0
            }
          }
          JOINT rightEye
          {
            OFFSET -3.6576 8.04674 8.04672
            CHANNELS 3 Zrotation Xrotation Yrotation
            End Site
            {
              OFFSET 1 0 0
            }
          }
        }
      }
      JOINT rCollar
      {
        OFFSET -2.68224 19.2634 -4.8768
        CHANNELS 3 Zrotation Xrotation Yrotation
        JOINT rShldr
        {
          OFFSET -8.77824 -1.95073 1.46304
          CHANNELS 3 Zrotation Xrotation Yrotation
          JOINT rForeArm
          {
            OFFSET -28.1742 -1.7115 0.48768
            CHANNELS 3 Zrotation Xrotation Yrotation
            JOINT rHand
            {
              OFFSET -22.5879 0.773209 7.07136
              CHANNELS 3 Zrotation Xrotation Yrotation
              JOINT rThumb1
              {
                OFFSET -1.2192 -0.487915 3.41376
                CHANNELS 3 Zrotation Xrotation Yrotation
                JOINT rThumb2
                {
                  OFFSET -3.37035 -0.52449 3.41376
                  CHANNELS 3 Zrotation Xrotation Yrotation
                  End Site
                  {
                    OFFSET -1.78271 -1.18214 1.43049
                  }
                }
              }
              JOINT rIndex1
              {
                OFFSET -7.75947 0.938293 5.60832
                CHANNELS 3 Zrotation Xrotation Yrotation
                JOINT rIndex2
                {
                  OFFSET -2.54057 -0.884171 1.56538
                  CHANNELS 3 Zrotation Xrotation Yrotation
                  End Site
                  {
                    OFFSET -1.62519 -0.234802 1.16502
                  }
                }
              }
              JOINT rMid1
              {
                OFFSET -8.24714 1.18213 3.41376
                CHANNELS 3 Zrotation Xrotation Yrotation
                JOINT rMid2
                {
                  OFFSET -3.10165 -0.590103 1.0647
                  CHANNELS 3 Zrotation Xrotation Yrotation
                  End Site
                  {
                    OFFSET -2.48547 -0.328903 0.83742
                  }
                }
              }
              JOINT rRing1
              {
                OFFSET -8.82822 0.546677 1.51678
                CHANNELS 3 Zrotation Xrotation Yrotation
                JOINT rRing2
                {
                  OFFSET -2.60934 -0.819778 -0.0198488
                  CHANNELS 3 Zrotation Xrotation Yrotation
                  End Site
                  {
                    OFFSET -2.33842 -0.294052 0.168128
                  }
                }
              }
              JOINT rPinky1
              {
                OFFSET -8.27202 -0.0477905 -0.4584
                CHANNELS 3 Zrotation Xrotation Yrotation
                JOINT rPinky2
                {
                  OFFSET -1.82734 -0.647385 -0.700984
                  CHANNELS 3 Zrotation Xrotation Yrotation
                  End Site
                  {
                    OFFSET -1.69225 -0.51767 -0.607171
                  }
                }
              }
            }
          }
        }
      }
      JOINT lCollar
      {
        OFFSET 2.68224 19.2634 -4.8768
        CHANNELS 3 Zrotation Xrotation Yrotation
        JOINT lShldr
        {
          OFFSET 8.77824 -1.95073 1.46304
          CHANNELS 3 Zrotation Xrotation Yrotation
          JOINT lForeArm
          {
            OFFSET 28.1742 -1.7115 0.48768
            CHANNELS 3 Zrotation Xrotation Yrotation
            JOINT lHand
            {
              OFFSET 22.5879 0.773209 7.07136
              CHANNELS 3 Zrotation Xrotation Yrotation
              JOINT lThumb1
              {
                OFFSET 1.2192 -0.487915 3.41376
                CHANNELS 3 Zrotation Xrotation Yrotation
                JOINT lThumb2
                {
                  OFFSET 3.37035 -0.52449 3.41376
                  CHANNELS 3 Zrotation Xrotation Yrotation
                  End Site
                  {
                    OFFSET 1.78271 -1.18214 1.43049
                  }
                }
              }
              JOINT lIndex1
              {
                OFFSET 7.75947 0.938293 5.60832
                CHANNELS 3 Zrotation Xrotation Yrotation
                JOINT lIndex2
                {
                  OFFSET 2.54057 -0.884171 1.56538
                  CHANNELS 3 Zrotation Xrotation Yrotation
                  End Site
                  {
                    OFFSET 1.62519 -0.234802 1.16502
                  }
                }
              }
              JOINT lMid1
              {
                OFFSET 8.24714 1.18213 3.41376
                CHANNELS 3 Zrotation Xrotation Yrotation
                JOINT lMid2
                {
                  OFFSET 3.10165 -0.590103 1.0647
                  CHANNELS 3 Zrotation Xrotation Yrotation
                  End Site
                  {
                    OFFSET 2.48547 -0.328903 0.83742
                  }
                }
              }
              JOINT lRing1
              {
                OFFSET 8.82822 0.546677 1.51678
                CHANNELS 3 Zrotation Xrotation Yrotation
                JOINT lRing2
                {
                  OFFSET 2.60934 -0.819778 -0.0198488
                  CHANNELS 3 Zrotation Xrotation Yrotation
                  End Site
                  {
                    OFFSET 2.33842 -0.294052 0.168128
                  }
                }
              }
              JOINT lPinky1
              {
                OFFSET 8.27202 -0.0477905 -0.4584
                CHANNELS 3 Zrotation Xrotation Yrotation
                JOINT lPinky2
                {
                  OFFSET 1.82734 -0.647385 -0.700984
                  CHANNELS 3 Zrotation Xrotation Yrotation
                  End Site
                  {
                    OFFSET 1.69225 -0.51767 -0.607171
                  }
                }
              }
            }
          }
        }
      }
    }
  }
  JOINT rButtock
  {
    OFFSET -8.77824 4.35084 1.2192
    CHANNELS 3 Zrotation Xrotation Yrotation
    JOINT rThigh
    {
      OFFSET 0 -1.70687 -2.19456
      CHANNELS 3 Zrotation Xrotation Yrotation
      JOINT rShin
      {
        OFFSET 0 -36.8199 0.73152
        CHANNELS 3 Zrotation Xrotation Yrotation
        JOINT rFoot
        {
          OFFSET 0.73152 -45.1104 -5.12064
          CHANNELS 3 Zrotation Xrotation Yrotation
          End Site
          {
            OFFSET -1.1221 -3.69964 12.103
          }
        }
      }
    }
  }
  JOINT lButtock
  {
    OFFSET 8.77824 4.35084 1.2192
    CHANNELS 3 Zrotation Xrotation Yrotation
    JOINT lThigh
    {
      OFFSET 0 -1.70687 -2.19456
      CHANNELS 3 Zrotation Xrotation Yrotation
      JOINT lShin
      {
        OFFSET 0 -36.8199 0.73152
        CHANNELS 3 Zrotation Xrotation Yrotation
        JOINT lFoot
        {
          OFFSET -0.73152 -45.1104 -5.12064
          CHANNELS 3 Zrotation Xrotation Yrotation
          End Site
          {
            OFFSET 1.1221 -3.69964 12.103
          }
        }
      }
    }
  }
}
MOTION
Frames:	4
Frame Time:	0.03333
0.02916239979586858 65.89384020634782 153.2899921851415 -122.5623550415039 61.761722564697266 -117.42880249023438 -0.07856997102499008 27.249399185180664 -2.602933168411255 11.046148300170898 -11.53429126739502 0.9753292202949524 -9.564064025878906 22.18508529663086 -17.992565155029297 26.823333740234375 -24.38578224182129 -30.147409439086914 -0.037490878254175186 -0.5497061014175415 -0.5514724850654602 0.31553488969802856 -0.14293192327022552 0.0009356938535347581 0.4460907280445099 0.30910617113113403 -0.1611051857471466 53.06240463256836 11.29793930053711 -9.923046112060547 -27.520263671875 -28.646371841430664 65.43741607666016 -0.030516143888235092 -7.121072292327881 -0.8776068091392517 -0.012134292162954807 -0.2720548212528229 -0.24555574357509613 0.37240684032440186 0.3695785403251648 0.24545791745185852 0.2625255882740021 0.38584375381469727 -0.33106526732444763 7.442073345184326 5.643059253692627 0.4456816017627716 -0.0761871263384819 0.11291413009166718 -0.012848494574427605 2.990522623062134 1.1984683275222778 0.0033944128081202507 -0.22137221693992615 -0.34870949387550354 0.08124636858701706 10.03050708770752 0.4441630244255066 0.016434194520115852 -0.07971484214067459 0.48975449800491333 0.06815768033266068 2.150296926498413 -0.9195772409439087 -0.5446764230728149 0.3004179894924164 -0.21707898378372192 0.4305135905742645 -49.227813720703125 43.86823654174805 -25.990087509155273 28.566394805908203 -35.085514068603516 -75.8250961303711 0.08180327713489532 -26.756736755371094 4.30000114440918 0.4178585112094879 -0.07202217727899551 -0.5173352360725403 0.1982411891222 -0.16984610259532928 0.28202077746391296 0.16693271696567535 -0.671398937702179 0.6731627583503723 -7.822872161865234 5.905418872833252 -0.30097103118896484 0.49013710021972656 0.30144283175468445 -0.4311932325363159 -2.804525136947632 1.141585111618042 -0.5324047803878784 0.04548201337456703 0.5007658004760742 -0.4311687648296356 -10.395428657531738 0.941065788269043 -0.22583211958408356 0.41807207465171814 -0.33772772550582886 -0.34220707416534424 -2.020965576171875 -1.2210829257965088 0.305168092250824 -0.08186487853527069 0.05959487333893776 -0.5109319090843201 -65.44782257080078 -55.191017150878906 -55.55256652832031 -171.90774536132812 82.18864440917969 174.11148071289062 3.3412702083587646 -6.692806720733643 11.936931610107422 -0.16385245323181152 0.20454387366771698 -0.2437697798013687 50.84248352050781 -49.12812423706055 37.488792419433594 2.0536839962005615 67.61258697509766 -3.663421869277954 0.3432543873786926 -17.003293991088867 7.995445728302002
0.7583721786066474 64.87162043478537 153.59637504795782 -125.29143524169922 62.64119338989258 -121.41535949707031 -0.08875903487205505 26.266849517822266 -2.492642641067505 11.238591194152832 -11.070181846618652 0.911780834197998 -9.553141593933105 22.485750198364258 -18.3374080657959 26.271560668945312 -24.610065460205078 -30.97517967224121 0.05549223721027374 -0.5351462364196777 -0.43208223581314087 0.3813410997390747 -0.09353694319725037 0.038128532469272614 0.46586737036705017 0.2001301646232605 -0.23925286531448364 53.16950225830078 12.941215515136719 -9.015628814697266 -27.833271026611328 -29.705421447753906 67.16899108886719 0.10828252136707306 -6.44145393371582 -0.7746922373771667 -0.026584485545754433 -0.24429291486740112 -0.3598550260066986 0.31451261043548584 0.4424866735935211 0.3179822862148285 0.07720893621444702 0.33138856291770935 -0.4319603145122528 7.490823268890381 5.7452473640441895 0.433927446603775 -0.10737840831279755 0.17038105428218842 0.009403573349118233 2.857435464859009 1.113577961921692 0.0005198494764044881 -0.22869929671287537 -0.4776725172996521 -0.013994330540299416 10.000694274902344 0.5535796880722046 -0.0726725161075592 -0.12979507446289062 0.5188261270523071 0.08215271681547165 2.105541229248047 -0.9584007859230042 -0.5606421232223511 0.19556324183940887 -0.23539018630981445 0.47487688064575195 -51.88214111328125 45.202606201171875 -21.8167667388916 28.43657875061035 -35.53995895385742 -77.0097427368164 0.005926081445068121 -26.754589080810547 4.247321128845215 0.39220690727233887 -0.07504033297300339 -0.5957303643226624 -0.009155426174402237 -0.21235257387161255 0.031272225081920624 0.2262769341468811 -0.6685353517532349 0.5538894534111023 -7.763912200927734 5.9046783447265625 -0.32274892926216125 0.4711436927318573 0.2802852690219879 -0.40238669514656067 -2.837674856185913 1.0512109994888306 -0.5215815901756287 -0.031377121806144714 0.547517716884613 -0.40077871084213257 -10.44242000579834 0.8855538368225098 -0.2310347706079483 0.5643987059593201 -0.3324008584022522 -0.28015825152397156 -2.0728628635406494 -1.2419698238372803 0.414421021938324 -0.033470507711172104 0.015323462896049023 -0.29328081011772156 -56.596885681152344 -54.0493049621582 -45.802642822265625 -153.86611938476562 87.84458923339844 156.35142517089844 3.2854015827178955 -4.009314060211182 13.029189109802246 -0.20239003002643585 0.1594926118850708 -0.2137664407491684 50.64937210083008 -50.22097396850586 37.31048583984375 2.202725648880005 69.7022933959961 -3.8338112831115723 0.39315545558929443 -17.866899490356445 7.779999256134033
1.450527754283284 63.93085066907532 153.95573275125506 -128.17715454101562 63.546600341796875 -125.39540100097656 -0.04906834289431572 25.36362648010254 -2.4402873516082764 11.352704048156738 -10.665266990661621 0.8091718554496765 -9.517614364624023 22.759727478027344 -18.68768882751465 25.741140365600586 -24.869102478027344 -31.780303955078125 0.15046797692775726 -0.48138228058815 -0.33905133605003357 0.47444939613342285 -0.04246944561600685 0.09349045902490616 0.4456009864807129 0.06733565777540207 -0.30408021807670593 53.215187072753906 14.706018447875977 -8.052362442016602 -28.066408157348633 -30.83615493774414 69.020263671875 0.22631031274795532 -5.40982723236084 -0.6268340945243835 -0.026746951043605804 -0.23129981756210327 -0.3942282497882843 0.25631651282310486 0.49333813786506653 0.3502136766910553 -0.09078577905893326 0.2772843539714813 -0.5129591226577759 7.538527488708496 5.79240083694458 0.35874900221824646 -0.12471199035644531 0.2203311324119568 0.005236565601080656 2.7644526958465576 1.0477194786071777 -0.014074478298425674 -0.21984504163265228 -0.6276460886001587 -0.10516414791345596 9.97880744934082 0.669003427028656 -0.17919766902923584 -0.15991264581680298 0.5089649558067322 0.1189979836344719 2.0976762771606445 -0.9346545934677124 -0.6031606197357178 0.11744873970746994 -0.22523829340934753 0.5011642575263977 -54.79833221435547 46.47865295410156 -17.319652557373047 28.38599395751953 -36.12446212768555 -78.17330932617188 0.07767094671726227 -27.18282699584961 4.259570598602295 0.3409576416015625 -0.08289021253585815 -0.6408786177635193 -0.2036277800798416 -0.22393935918807983 -0.21335409581661224 0.26434990763664246 -0.622307538986206 0.3953581750392914 -7.71157169342041 5.895562171936035 -0.3407737910747528 0.457467645406723 0.2382974922657013 -0.33045104146003723 -2.842512369155884 1.0015907287597656 -0.5037711262702942 -0.08673043549060822 0.5934126973152161 -0.3210586905479431 -10.493951797485352 0.7627155780792236 -0.24400664865970612 0.6698739528656006 -0.28597941994667053 -0.22430460155010223 -2.118044853210449 -1.2221698760986328 0.47778815031051636 0.014246875420212746 -0.06684503704309464 -0.060166433453559875 -48.76517868041992 -51.98149108886719 -37.3217658996582 -12.25232219696045 86.11924743652344 14.954691886901855 3.245192527770996 -1.6329900026321411 13.791190147399902 -0.2481173276901245 0.08370640128850937 -0.15723642706871033 50.300716400146484 -51.390892028808594 36.85628128051758 2.545991897583008 71.61984252929688 -4.13353157043457 0.5781547427177429 -18.660831451416016 7.658432483673096
2.0674109100466778 63.02948426468708 154.36855269306352 -131.38172912597656 64.37648010253906 -128.843505859375 0.00499600637704134 24.532630920410156 -2.4527077674865723 11.396507263183594 -10.32852554321289 0.6657437086105347 -9.454377174377441 22.982112884521484 -19.01323127746582 25.250703811645508 -25.140165328979492 -32.447174072265625 0.2542276680469513 -0.4285029470920563 -0.2873287796974182 0.5665339827537537 0.011842383071780205 0.1540733277797699 0.4000372588634491 -0.05990871787071228 -0.350860595703125 53.240943908691406 16.64979362487793 -7.153750419616699 -28.238759994506836 -32.1300163269043 71.07767486572266 0.28951385617256165 -4.339134216308594 -0.5215943455696106 -0.026216020807623863 -0.2204488217830658 -0.3471983075141907 0.20841126143932343 0.5101525187492371 0.34152504801750183 -0.18799792230129242 0.2312346249818802 -0.5742045640945435 7.585193634033203 5.762664318084717 0.2493671327829361 -0.10870778560638428 0.2643651068210602 -0.016819361597299576 2.7078397274017334 1.0177375078201294 -0.028746671974658966 -0.17340296506881714 -0.7573805451393127 -0.1603817194700241 9.967745780944824 0.7705998420715332 -0.2582428753376007 -0.1678341180086136 0.473039448261261 0.18512094020843506 2.1178293228149414 -0.8362657427787781 -0.6677696108818054 0.09614705294370651 -0.20026053488254547 0.4967152178287506 -58.00139617919922 47.44559860229492 -12.561239242553711 28.39714241027832 -36.7269401550293 -79.18666076660156 0.24349354207515717 -27.87076759338379 4.319641590118408 0.2692352831363678 -0.10001593083143234 -0.6523170471191406 -0.3501946032047272 -0.21239668130874634 -0.4124677777290344 0.2846003770828247 -0.5180330276489258 0.245832160115242 -7.689403533935547 5.884586811065674 -0.3493020236492157 0.46437111496925354 0.17909230291843414 -0.23966100811958313 -2.834062337875366 1.0182849168777466 -0.48085054755210876 -0.1322588175535202 0.6307293176651001 -0.18791432678699493 -10.561400413513184 0.6101199984550476 -0.25454962253570557 0.7241433262825012 -0.23586323857307434 -0.20129625499248505 -2.148639678955078 -1.18349027633667 0.5079396963119507 0.049733005464076996 -0.13945312798023224 0.1434101015329361 -42.182838439941406 -49.39432907104492 -30.363025665283203 -4.379429817199707 80.64309692382812 7.195621013641357 3.1869471073150635 0.11209109425544739 14.161887168884277 -0.2841378450393677 1.6161146049853414e-05 -0.08238275349140167 49.93175506591797 -52.503849029541016 36.27725601196289 3.0456714630126953 73.40670013427734 -4.542758941650391 0.8813452124595642 -19.393600463867188 7.620065212249756
